<svg xml:space="preserve" overflow="visible" viewBox="0 0 1600 341" y="0px" x="0px" xmlns:xlink="http://www.w3.org/1999/xlink" xmlns="http://www.w3.org/2000/svg" id="Logo" version="1.2">
<g>
	<path d="M404.68,38.68c13.27,0,23.22,9.95,23.22,23.22c0,13.27-9.95,23.22-23.22,23.22c-13.27,0-23.22-9.95-23.22-23.22
		C381.46,48.63,391.41,38.68,404.68,38.68L404.68,38.68z M384.78,108.34h38.14v162.53h-38.14V108.34L384.78,108.34z"></path>
	<path d="M466.03,108.34h38.15v23.22h1.66c0,0,16.59-26.54,48.1-26.54c34.83,0,61.36,26.54,61.36,69.65v96.19h-38.15v-90.89
		c0-23.55-13.27-36.82-33.17-36.82c-23.22,0-39.8,16.58-39.8,41.46v86.24h-38.15V108.34L466.03,108.34z"></path>
	<path d="M667.35,148.14H637.5v-36.49h16.58c11.61,0,16.59-4.98,16.59-18.24V60.24h34.83v51.41h36.49v36.49H705.5v64.68
		c0,16.59,8.29,24.88,21.56,24.88c9.95,0,19.9-4.65,19.9-4.65v36.15c0,0-11.61,4.98-28.2,4.98c-31.51,0-51.41-19.9-51.41-56.39
		V148.14L667.35,148.14z"></path>
	<path d="M921.09,245.99c0,0-21.56,28.19-68,28.19c-48.09,0-86.24-38.15-86.24-84.58c0-46.43,38.15-84.58,84.58-84.58
		c46.43,0,79.61,36.49,79.61,81.26c0,9.95-1.66,18.25-1.66,18.25H808.31c3.98,18.24,19.9,34.83,46.44,34.83
		c28.19,0,44.78-20.23,44.78-20.23L921.09,245.99L921.09,245.99z M889.58,173.02c-4.98-18.24-18.25-31.51-39.81-31.51
		c-23.22,0-36.48,13.27-41.46,31.51H889.58L889.58,173.02z"></path>
	<path d="M960.88,108.34h38.15v23.22h1.66c0,0,16.58-26.54,46.43-26.54h6.64v41.46c0,0-4.98-1.66-13.27-1.66
		c-23.22,0-41.46,18.24-41.46,46.44v79.61h-38.15V108.34L960.88,108.34z"></path>
	<path d="M1081.93,38.68h38.14v92.88h1.66c0,0,16.59-26.54,48.1-26.54c34.83,0,61.36,26.54,61.36,69.65v96.19h-38.14v-90.89
		c0-23.55-13.27-36.82-33.17-36.82c-23.22,0-39.81,16.58-39.81,41.46v86.24h-38.14V38.68L1081.93,38.68z"></path>
	<path d="M1256.71,299.06c0,0,8.3,4.97,19.91,4.97c14.92,0,22.55-8.62,28.19-21.56l4.98-11.61l-64.69-162.53h41.47l43.12,112.78
		h1.65l41.47-112.78h41.46l-69.66,177.46c-13.6,34.83-31.51,54.73-59.7,54.73c-15.59,0-28.2-4.98-28.2-4.98V299.06L1256.71,299.06z"></path>
	<path d="M1434.15,108.34h38.15v23.22h1.66c0,0,14.92-26.54,53.07-26.54c38.14,0,72.97,34.83,72.97,84.58
		c0,49.75-34.83,84.58-72.97,84.58c-38.15,0-53.07-26.54-53.07-26.54h-1.66v92.88h-38.15V108.34L1434.15,108.34z M1561.85,189.6
		c0-26.54-19.9-46.43-44.77-46.43c-24.88,0-44.78,19.9-44.78,46.43c0,26.54,19.9,46.44,44.78,46.44
		C1541.95,236.04,1561.85,216.14,1561.85,189.6L1561.85,189.6z"></path>
</g>
<path d="M154.27,38.65c-64.13,0-116.12,51.99-116.12,116.12s51.99,116.12,116.12,116.12
	c64.13,0,116.12-51.99,116.12-116.12S218.4,38.65,154.27,38.65 M154.27,0.5c85.06,0,154.27,69.2,154.27,154.27
	c0,85.06-69.2,154.27-154.27,154.27C69.2,309.03,0,239.83,0,154.77C0,69.7,69.2,0.5,154.27,0.5L154.27,0.5L154.27,0.5z" fill="#EE7900"></path>
</svg>
